<svg xmlns="http://www.w3.org/2000/svg" width="96" height="96" fill="none" viewBox="0 0 96 96"><circle cx="48" cy="48" r="48" fill="url(#paint0_linear)" transform="rotate(90 48 48)"/><ellipse fill="url(#paint1_linear)" rx="44" ry="44" transform="matrix(1 0 0 -1 48 48)"/><circle r="40" fill="#fff" transform="matrix(-4.37114e-08 -1 -1 4.37114e-08 48.1177 48.1177)"/><circle cx="48.118" cy="48.118" r="36" fill="#3067F0"/><path fill="#fff" fill-rule="evenodd" d="M26.4586 65.6496H69.4732V60.668L26.4586 60.668L26.4586 65.6496Z" clip-rule="evenodd"/><path fill="#fff" fill-rule="evenodd" d="M35.1656 40.829L24.5527 33.5516L26.502 55.2971L35.1656 40.829Z" clip-rule="evenodd"/><path fill="#fff" fill-rule="evenodd" d="M39.7138 57.9823L69.5164 57.9823L71.6823 34.1142L39.7138 57.9823Z" clip-rule="evenodd"/><path fill="#fff" fill-rule="evenodd" d="M58.1239 40.3955L34.7756 57.8093H28.3213L40.1903 37.9697L47.771 25.4075L58.1239 40.3955Z" clip-rule="evenodd"/><defs><linearGradient id="paint0_linear" x1="48" x2="48" y1="0" y2="96" gradientUnits="userSpaceOnUse"><stop stop-color="#F0B90B"/><stop offset="1" stop-color="#F8D33A"/></linearGradient><linearGradient id="paint1_linear" x1="44" x2="44" y1="0" y2="88" gradientUnits="userSpaceOnUse"><stop stop-color="#F0B90B"/><stop offset="1" stop-color="#F8D33A"/></linearGradient></defs></svg>