<svg xmlns="http://www.w3.org/2000/svg" width="96" height="96" fill="none" viewBox="0 0 96 96"><circle cx="48" cy="48" r="48" fill="url(#paint0_linear)" transform="rotate(90 48 48)"/><ellipse fill="url(#paint1_linear)" rx="44" ry="44" transform="matrix(1 0 0 -1 48 48)"/><circle r="40" fill="#fff" transform="matrix(-4.37114e-08 -1 -1 4.37114e-08 48.1177 48.1177)"/><circle cx="48.118" cy="48.118" r="36" fill="#687EE3"/><path fill="#D2D8EC" d="M48.1177 60.8485V73.3871L63.5498 51.7178L48.1177 60.8485Z"/><path fill="#C4C8D8" d="M48.1177 41.5004V57.6398L63.5498 48.5091L48.1177 41.5004Z"/><path fill="#D0D6EA" d="M48.1177 22.9177V41.5006L63.5498 48.5094L48.1177 22.9177Z"/><path fill="#DEE2F6" d="M48.1177 60.8485V73.3871L32.6855 51.7178L48.1177 60.8485Z"/><path fill="#D2D8EC" d="M48.1177 41.5004V57.6398L32.6855 48.5091L48.1177 41.5004Z"/><path fill="#DEE2F6" d="M48.1177 22.9177V41.5006L32.6855 48.5094L48.1177 22.9177Z"/><defs><linearGradient id="paint0_linear" x1="48" x2="48" y1="0" y2="96" gradientUnits="userSpaceOnUse"><stop stop-color="#F0B90B"/><stop offset="1" stop-color="#F8D33A"/></linearGradient><linearGradient id="paint1_linear" x1="44" x2="44" y1="0" y2="88" gradientUnits="userSpaceOnUse"><stop stop-color="#F0B90B"/><stop offset="1" stop-color="#F8D33A"/></linearGradient></defs></svg>